/* XPM */
static char *ea4bb9e5bd0b4e74e517d4b6988d660a5SVKo7A5wKTZVJwY[] = {
/* columns rows colors chars-per-pixel */
"40 40 161 2 ",
"   c None",
".  c #230F05",
"X  c #2B1407",
"o  c #2D1508",
"O  c #301709",
"+  c #331A0B",
"@  c #391E0E",
"#  c #3C200F",
"$  c #3F2211",
"%  c #432411",
"&  c #482714",
"*  c #472814",
"=  c #4B2A15",
"-  c #4F2E18",
";  c #522E13",
":  c #512E18",
">  c #563316",
",  c #583110",
"<  c #55311A",
"1  c #59341C",
"2  c #643A13",
"3  c #6C3D15",
"4  c #744214",
"5  c #7C4315",
"6  c #7E4D18",
"7  c #455D2D",
"8  c #546026",
"9  c #596025",
"0  c #55652B",
"q  c #4C6532",
"w  c #4F6B33",
"e  c #536C36",
"r  c #557038",
"t  c #5C743B",
"y  c #686526",
"u  c #656F2D",
"i  c #6D6928",
"p  c #746421",
"a  c #6F702B",
"s  c #617740",
"d  c #647B41",
"f  c #844E17",
"g  c #8F4F16",
"h  c #845118",
"j  c #8F5619",
"k  c #8A591B",
"l  c #9B5817",
"z  c #925618",
"x  c #985718",
"c  c #945C1A",
"v  c #9D5C1A",
"b  c #A35E19",
"n  c #9F641D",
"m  c #A5631B",
"M  c #AA631C",
"N  c #AF6A1E",
"B  c #B36B1D",
"V  c #B5711E",
"C  c #BE741F",
"Z  c #9A7C2E",
"A  c #A77321",
"S  c #AC7325",
"D  c #B27420",
"F  c #B97521",
"G  c #B17B27",
"H  c #BB7B23",
"J  c #C67B21",
"K  c #CB7F22",
"L  c #D27C23",
"P  c #698044",
"I  c #6E8448",
"U  c #71864A",
"Y  c #748B4D",
"T  c #86802F",
"R  c #938131",
"E  c #A0832E",
"W  c #BA8B31",
"Q  c #AE9333",
"!  c #A99C3B",
"~  c #C38225",
"^  c #CE8224",
"/  c #CE8D2A",
"(  c #D48525",
")  c #DB8527",
"_  c #D48A26",
"`  c #DA8B25",
"'  c #D18628",
"]  c #D58C29",
"[  c #DA8E2A",
"{  c #DC932C",
"}  c #D79C2F",
"|  c #DC9B2F",
" . c #DB9430",
".. c #DC9E31",
"X. c #E2952C",
"o. c #E29A2E",
"O. c #E29431",
"+. c #E29C33",
"@. c #E89931",
"#. c #DDA333",
"$. c #DCA539",
"%. c #D9AF3A",
"&. c #E9A12E",
"*. c #E4A333",
"=. c #EAA533",
"-. c #E7A835",
";. c #EBAA34",
":. c #E5A339",
">. c #EAA63C",
",. c #E5AB3A",
"<. c #EAAD3A",
"1. c #F1AA32",
"2. c #F0AF3D",
"3. c #EEB137",
"4. c #E5B13C",
"5. c #ECB33B",
"6. c #F3B337",
"7. c #F1B43A",
"8. c #F4BC3D",
"9. c #F4C03F",
"0. c #AFAB4B",
"q. c #B3A745",
"w. c #D9B640",
"e. c #EBB645",
"r. c #E6B940",
"t. c #EEBA40",
"y. c #EEBF49",
"u. c #F1B444",
"i. c #F3BD41",
"p. c #F5C345",
"a. c #F7C947",
"s. c #FACA46",
"d. c #F4C549",
"f. c #F1C449",
"g. c #F6C84A",
"h. c #F3CA4C",
"j. c #FACE4B",
"k. c #FBCF4D",
"l. c #FACE4D",
"z. c #FACD4A",
"x. c #FBD04F",
"c. c #FBD24F",
"v. c #FCD14D",
"b. c #FAD24D",
"n. c #F1CC51",
"m. c #F7CE50",
"M. c #F8CE52",
"N. c #F7D052",
"B. c #F6D352",
"V. c #FBD350",
"C. c #FFD552",
"Z. c #FED553",
"A. c #FCD756",
"S. c #FBD452",
"D. c #FDDB57",
"F. c #FCD959",
"G. c #FEDD59",
"H. c #FCDD5C",
"J. c #FEDE5A",
"K. c #FEE05A",
"L. c #FADD60",
/* pixels */
"                                                                                ",
"                                                                                ",
"                                                                                ",
"                                                                                ",
"                                                                                ",
"                                                                                ",
"                                                                                ",
"                                                                                ",
"                              :.=.z.M.  u.>.  p.                                ",
"                          x.p.+. .<.A.i.>.+.g.x.                                ",
"                    8.  +.e.A.*.]  .k.5.{ 5.x.o.O.p.k.                          ",
"                    9.V.;.o.M.d.[ { 8.;.[ p.5.( *.k.    p.                      ",
"                  X.=.Z.k.X.{ p.;._ &.@.( 6.[ ( 6.8.  c.f.                      ",
"                  >.[ =.c.5.( { 6._ ` ^ B [ K &.@.{ p.V.=.                      ",
"                  <.+.[ 6.8.o.^ [ m b 2 , z N o.( { s.7.( '                     ",
"                A.F.i.{ { 1.&.m 4 3 : ; - = 3 x M =.6._ ' f.n.#.                ",
"                %.c.D.p.o.` [ f ; 1 1 : : - & % j J ] +.d.B.*.                  ",
"            q 7 E 1.9.a.6.( b > 1 : $ O + @ % - = v ' i.5.o.{                   ",
"          t d e i G { =.1.` 5 > 1 % X X + O + = & 2 / ] /  .:.                  ",
"        s   0 ! 0.q.*.` ` b * > = O o O o + + $ = > m B #.5.d.                  ",
"                s.Z.c.7.&.z * < % + + O X o @ $ < $ k ;.s.K.H.d.*.              ",
"                  1.;.=.J x , 1 = @ + X . + @ * < % h ..;.<.;.*.                ",
"                  { ( K ^ B 3 > : @ @ O @ @ @ = : 2 F ] O.X.@.X.                ",
"                  2.6.5.6.X.g * 1 : $ + @ + & - = 4 ^ 6.x.g.$.W {               ",
"                4.S.G.x.;.^ m 4 - > 1 < : < 1 % 4 F ^ _ d.H.w.8 7               ",
"                  t.7. .J ' { n 2 % - > 1 < ; 3 n &.7.{ _ 5.4.R e q             ",
"                    { ] -.8.*.V B c 6 * ; f l C ^ | p.m.{ K p 9 e r             ",
"                  X.+.9.V.s.[ _ ;.;.V V H C o.{ ;.*.<.L.s.X.S 0 r d I           ",
"                      b.S.$.A 4.s.*._ 3.*.] 8.o.5.k.>.,.5.      e w P           ",
"                      ,.Q 9 Z N.V.*...a.g.*.s.8.  A.2.) ]                       ",
"                    / Z t u r.h.<.[ =.j.G.*.A.K.  j.t.L                         ",
"                      Y t a } ..  +.{ a.h.    d.    ..                          ",
"                    U d q             #.#.    ..                                ",
"                                                                                ",
"                                                                                ",
"                                                                                ",
"                                                                                ",
"                                                                                ",
"                                                                                ",
"                                                                                "
};
