/* XPM */
static char *_57c0f5bd7eb448fccc231374990890ax3XeXlxnbVhNbKne[] = {
/* columns rows colors chars-per-pixel */
"40 40 154 2 ",
"   c None",
".  c #377C3D",
"X  c #3C833E",
"o  c #41873F",
"O  c #438D3E",
"+  c #47953F",
"@  c #4F943D",
"#  c #58AC3E",
"$  c #428C42",
"%  c #469241",
"&  c #4A9542",
"*  c #4D9B45",
"=  c #4C9D48",
"-  c #519C44",
";  c #529F48",
":  c #4FA145",
">  c #4FA24A",
",  c #53A244",
"<  c #5AA546",
"1  c #55AC43",
"2  c #5EAB46",
"3  c #53A449",
"4  c #5AA749",
"5  c #56AB4A",
"6  c #5CAC4A",
"7  c #5FB546",
"8  c #5CB14A",
"9  c #5FB84D",
"0  c #63AC44",
"q  c #62AD4A",
"w  c #68AB48",
"e  c #65B347",
"r  c #69B147",
"t  c #66B946",
"y  c #6DB844",
"u  c #64B24B",
"i  c #6CB44B",
"p  c #66B94C",
"a  c #6ABB4C",
"s  c #73B744",
"d  c #72B34E",
"f  c #73BC4B",
"g  c #7ABE4C",
"h  c #6DBA50",
"j  c #72BD51",
"k  c #7BBC53",
"l  c #6FC146",
"z  c #6EC149",
"x  c #73C446",
"c  c #74C34D",
"v  c #7CC44C",
"b  c #77C94C",
"n  c #7DCB4F",
"m  c #6FC450",
"M  c #74C251",
"N  c #7CC553",
"B  c #7CCA52",
"V  c #81C64D",
"C  c #84CB4C",
"Z  c #8BCD4D",
"A  c #87D24E",
"S  c #8DD14E",
"D  c #97D64D",
"F  c #85C654",
"G  c #83CB53",
"H  c #8ACC54",
"J  c #8CCC5C",
"K  c #98CF5F",
"L  c #85D153",
"P  c #8ED553",
"I  c #8DD952",
"U  c #8ED25B",
"Y  c #94D554",
"T  c #94DC53",
"R  c #9EDD55",
"E  c #93D45B",
"W  c #9CD65C",
"Q  c #95D95B",
"!  c #9ADC5B",
"~  c #A3DB5C",
"^  c #A4E35B",
"/  c #ABE55A",
"(  c #B3EA5E",
")  c #8CCA64",
"_  c #93CA64",
"`  c #97CD69",
"'  c #95D362",
"]  c #9CD662",
"[  c #A3DA64",
"{  c #A5DB75",
"}  c #ACDD77",
"|  c #9DE062",
" . c #A5E163",
".. c #ACE363",
"X. c #ADE860",
"o. c #A5E368",
"O. c #ACE269",
"+. c #B3EB63",
"@. c #BAED67",
"#. c #B2E66A",
"$. c #B6E96D",
"%. c #BDED6F",
"&. c #ACE073",
"*. c #B3E672",
"=. c #B9E776",
"-. c #B7E873",
";. c #BCEA7B",
":. c #C3F36C",
">. c #C1ED74",
",. c #C3ED7E",
"<. c #C1F075",
"1. c #B8E385",
"2. c #BBE983",
"3. c #C3EE81",
"4. c #C0E68D",
"5. c #C3EA8A",
"6. c #C9EE8C",
"7. c #C6F087",
"8. c #CBF18C",
"9. c #C3EB90",
"0. c #CAEF92",
"q. c #CAED9C",
"w. c #CBF093",
"e. c #CEF099",
"r. c #D2F494",
"t. c #D2F39B",
"y. c #D3EFA2",
"u. c #D3EEAD",
"i. c #D6F3A3",
"p. c #D8F4A3",
"a. c #DAF5AB",
"s. c #DFF6B1",
"d. c #DDF6B3",
"f. c #DDF5B0",
"g. c #DEF5B7",
"h. c #E1F6B7",
"j. c #E3F7BE",
"k. c #E0F4C0",
"l. c #E7F9C1",
"z. c #E7F8C3",
"x. c #E6F8C4",
"c. c #E9F9CA",
"v. c #ECF9CB",
"b. c #EAF9CD",
"n. c #ECF9CE",
"m. c #EEFAD1",
"M. c #EFFAD7",
"N. c #ECF9D0",
"B. c #F0FBD8",
"V. c #F3FBDD",
"C. c #F3FCDC",
"Z. c #F5FCE4",
"A. c #F6FCE7",
"S. c #FBFDF5",
/* pixels */
"                                                                                ",
"                                                                                ",
"                                                                                ",
"                                      %                                         ",
"                                      5                                         ",
"                                    6 9 >                                       ",
"                                    f N 6                                       ",
"                                  b P Q a 5                                     ",
"                $               a C ^ O.G 6 3               $                   ",
"                  8 a           f S +.=.E a           q 4 *                     ",
"                  m B T S i ,   0 Z @.;.W d     & < i B M 8                     ",
"                    I ^ ^ A i   @ s / ,.S <     i n U N p                       ",
"                    L ! X.( D v   0 K 7.b -   c L  .! h :                       ",
"                    p b ! @.( P   s _ q.B   b P | O.N < %                       ",
"                    5 7 z Q =.X.Z Z } i.[ v Y +.-.B 2 & $                       ",
"                        7 z ! 0.+.#.0.h.6.-.7.5.F q                             ",
"                c C v 2     G o.6.t.a.l.t.i.6.[ i   1 e i i q                   ",
"              A P R Y v y x A ..w.d.l.m.a.a.7.~ v f y V Z V c p 4               ",
"          z L ^ ( :.%.X.] ' *.0.i.j.C.A.c.s.t.8...E R ( +.~ Y M q <             ",
"      ; u c ' [ $.<.,.7.8.e.t.h.b.B.Z.S.B.m.z.s.t.,.=.>.#.[ ' F j 6 % X         ",
"          , < i B G H F k H ..8.t.a.b.V.x.i.8.$.E d k F F g p 4 & $             ",
"              , < q < - &   S ( r.i.f.N.y.a.8.[ v   - - < - % %                 ",
"                *         A T <.;.2.e.g.1.9.e.;.D i       $                     ",
"                        G Y +.2.J J 1.u.} ' { 3.X.V                             ",
"                    < g P ^ -.G u r ` q.U t p U -.~ F < *                       ",
"                    w C ..[ M u   u ) 9.c   6 u N / ! k <                       ",
"                    v E ' B 6   6 f W 3.B 2     q F E N u                       ",
"                  1 c G M 5 :   d C / %.I e     % , u i q                       ",
"                  1 8 p 8 = &   g Z / $.L 7     X O + ; - $                     ",
"                  6 =           0 g T [ M , %           $ .                     ",
"                3               > 8 B Q p %                 .                   ",
"                                  5 h B u *                                     ",
"                                  = 6 m 3                                       ",
"                                    3 9 =                                       ",
"                                      3                                         ",
"                                      $                                         ",
"                                                                                ",
"                                                                                ",
"                                                                                ",
"                                                                                "
};
