/* XPM */
static char *_402578392c94c7d95e291fb876737d3adskxu9AcdLMevYh[] = {
/* columns rows colors chars-per-pixel */
"40 40 137 2 ",
"   c None",
".  c #1F3C47",
"X  c #1F3F49",
"o  c #203F49",
"O  c #22454D",
"+  c #25494E",
"@  c #224752",
"#  c #254B53",
"$  c #294F53",
"%  c #2A5355",
"&  c #2C5957",
"*  c #275159",
"=  c #29545A",
"-  c #2D5B5C",
";  c #305F5E",
":  c #2F605E",
">  c #31615E",
",  c #2D5D62",
"<  c #305F60",
"1  c #2F6266",
"2  c #336462",
"3  c #366A66",
"4  c #336669",
"5  c #376C69",
"6  c #386E6A",
"7  c #3A726D",
"8  c #3C7A6E",
"9  c #3C7671",
"0  c #3E7F72",
"q  c #3E7974",
"w  c #3F7974",
"e  c #3F7975",
"r  c #3E7A74",
"t  c #3F7A74",
"y  c #3F7B74",
"u  c #3F7A75",
"i  c #3F7B75",
"p  c #3F7C74",
"a  c #3F7C75",
"s  c #3F7D75",
"d  c #3F7E74",
"f  c #3F7C76",
"g  c #3F7E76",
"h  c #3E7A74",
"j  c #407C74",
"k  c #407E75",
"l  c #407D76",
"z  c #407D77",
"x  c #407F76",
"c  c #417F76",
"v  c #407E77",
"b  c #417E77",
"n  c #417F77",
"m  c #407E76",
"M  c #407E78",
"N  c #417E78",
"B  c #417F78",
"V  c #417F78",
"C  c #3F8174",
"Z  c #3F8174",
"A  c #408076",
"S  c #418176",
"D  c #418077",
"F  c #418277",
"G  c #418277",
"H  c #418078",
"J  c #418178",
"K  c #428078",
"L  c #428079",
"P  c #428179",
"I  c #428378",
"U  c #428279",
"Y  c #42817A",
"T  c #43827A",
"R  c #43837A",
"E  c #43837B",
"W  c #428479",
"Q  c #43847A",
"!  c #43847B",
"~  c #43857B",
"^  c #43877A",
"/  c #43867B",
"(  c #44867B",
")  c #44877B",
"_  c #43837C",
"`  c #43847C",
"'  c #44847C",
"]  c #44857C",
"[  c #44857D",
"{  c #44867C",
"}  c #45867D",
"|  c #44877D",
" . c #45877D",
".. c #45867E",
"X. c #43837B",
"o. c #44887C",
"O. c #458A7D",
"+. c #46897F",
"@. c #458B7E",
"#. c #468A7E",
"$. c #468B7E",
"%. c #468A7F",
"&. c #468F7E",
"*. c #458A7D",
"=. c #468B80",
"-. c #478C80",
";. c #478D80",
":. c #478C81",
">. c #478E81",
",. c #478C82",
"<. c #478C80",
"1. c #488E81",
"2. c #488C82",
"3. c #488D83",
"4. c #488E83",
"5. c #498D84",
"6. c #498E84",
"7. c #488E83",
"8. c #489080",
"9. c #489282",
"0. c #4A9483",
"q. c #4A9085",
"w. c #4A9186",
"e. c #4C9687",
"r. c #4A9284",
"t. c #4C9B87",
"y. c #4D9B87",
"u. c #4D988A",
"i. c #4E9A8B",
"p. c #4E9A8B",
"a. c #509F8D",
"s. c #509F8D",
"d. c #4FA28A",
"f. c #50A18E",
"g. c #50A18E",
"h. c #52A390",
"j. c #52A390",
/* pixels */
"{ O.| I q f 5 f } %.%.{ ( %.e.f.h.a.i.i.i.w.w.5.5.5.5.5.5.{ I N 9 5 z 9 N I W / ",
"I 7 6 9 5 q 2 6 z T ..T b b F ( O.( F b N N z 7 9 b b T W b 7 9 6 4 9 2 6 9 q I ",
"9 5 Z d 9 f < 2 6 7 7 7 j f 9 7 5 7 9 7 6 7 9 9 9 7 7 9 9 5 5 z 7 < f 6 N p 6 9 ",
"7 6 7 9 7 N < 5 z 9 z 9 9 b z 7 7 f b N I { O.5.%.( b 9 9 j 9 z 7 < N q 9 7 5 7 ",
"9 6 6 9 4 I 2 7 j b ( ( N N I F b j f b I { ,.0.8.@.b j b K T b 6 2 { 6 9 6 5 5 ",
"N B B _ Y ,.$ + & ; ; > = - 3 - + o % 2 2 % # * > 5 - * - ; ; - O $ 5.( Y I b b ",
"5 4 2 2 2 % @ o O > 3 > 2 5 6 O # $ # 5 2 % = # + 7 5 > > > > + o # = 2 < < 2 5 ",
"9 6 7 6 5 + * # o & 7 6 6 p 7 # O * # 2 < * * # O 6 j 3 5 7 & O = = $ 6 4 4 6 j ",
"N 9 q z b & # O       ( F b 7 +       7 5       O 7 f 9 I       * # - b 9 7 z ( ",
"I 9 5 9 ( > < -       y.8.Z 7 @     3 &.8 ,     + 7 b { ,.      ; > 2 N 9 7 T 2.",
"..z 5 z b + 7 F 8     p W I ^ 2     ^ &.7 5     > 9 d I 9     9 F 7 # Y z 6 ..5.",
"2._ 9 9 z O O - 7 7     W ^ &.7   p 8     7 2   7 O.N I     8 6 ; @ @ Y 9 9 T { ",
"5.T 9 9 z # @ X + 7 7 7 F 8.t.7 1 8         7 , 7 5.( F 7 7 7 # X @ # N 9 f b T ",
"2.b 7 b z * = @     7 p 8 ^ d.7 1 8         7 - 5 8.9 7 p 7     * = = I b f d ,.",
"5.b 7 T ( = <       5 9 6 5 p 8   3 5     3 5   6 9 3 6 9 5       1 = b z 9 I e.",
"5.9 9 O.&.* 4         7 3 3 7       7 8 8 7       9 3 3 7         1 % z 7 7 { f.",
"5.7 9 5.8.- , 1 * #   3 7 7 7         8 8         7 7 7 3   * - , , $ f 7 5 O.j.",
"q.z 9 2.5.3 * 1 ,     3 9 W 7         : -         7 O.Z 5     4 , * < z j 7 ( a.",
"q.I 7 _ ,.9 5 = #     7 d { 5     , - 2 2 , -     7 8.^ 7     - , 5 6 f z 9 N i.",
"i.N 6 I I - 9 #       5 7 9 7     5 5 9 5 5 5     7 p 5 6       = f ; N N 6 N s.",
"i.b 7 T b - 5 #     9 3 2 8 7 7     p F 9 p     5 8 7 2 3 7     * 9 - I N 5 N u.",
"i.b 7 b 9 3 2       9 3 7 9 3 7 5   6 @.^ 5   6 9 5 9 5 3 9       3 2 O.{ 7 I w.",
"f.( 7 z j ; ,     6 7 5 9 9   6 3 > - 6 7 ; > 6 3   d 9 6 7 6     = > 5.%.9 d w.",
"g.%.5 7 b * , - * 7 7 7 b 9     & % & > > & & &     7 F 7 7 7 # , , - 8.2.z 9 5.",
"f.O.7 7 b * 4 * - I d N d = O       % f p %       @ - 9 I d I = = 4 * ,.O.9 9 5.",
"e.T 9 b b % , # 3 W ,.8.I * *         9 8         = = F 5.( W 2 # , * { T 6 b 5.",
"%.b f b I # @ % 7 ^ e.i.9 2           5 2           - 9 i.@.I 9 % O O b b 9 b ,.",
"( b 9 9 b + = 2 7 9 b { 3 3 3 3       2 5       3 3 2 6 O.b 9 5 2 & # 9 9 9 I 5.",
"{ _ 9 q I ; - # 3 9 7 d 5 > 2 2 2 2   d p   2 2 3 2 - 3 f 7 9 5 # - ; b j 9 _ 5.",
"2._ 6 f { - # # 7 W 7 7           > 3 W p 3 >           7 7 F 8 @ @ & T j 5 b { ",
"2.T 6 q N % * = 7 W d 7 5           2 b 7 >           5 8 G @.5 * * $ _ 9 5 9 B ",
"{ z 6 f q * , =   > 3 7 6           % 9 5 #           5 7 6 3   , , = z z j 9 N ",
"j 7 2 5 5 = - # - 3 7 7 7 ; * =   O # 7 3 O O   * @ - 7 7 7 6 & $ , * 5 7 7 7 6 ",
"3 2 < < 3 = # = 3 2 5 7 7 3 = , - # # 3 > O O - , * 3 7 j 5 > > % # * 2 < , 4 5 ",
"N N B { Y 5.- - > # = 2 > 2 - = # # ; ; > & O # # ; 2 2 2 # @ ; & - 5.F Y =.N N ",
"6 4 6 9 6 ( 2 6 d Y { b z F O.5.5.%.( T j j j 7 N I I b T T z q 5 2 ( 5 9 7 5 7 ",
"6 6 7 q 9 f 2 6 N 9 z 9 9 b T O.5.O.( B B b b 7 9 f f 9 f j 9 z 3 < N 9 7 7 5 9 ",
"9 6 d Z 5 f < 9 z 5 5 9 9 7 7 9 z 7 7 5 7 9 7 5 6 9 f f 9 6 7 6 2 < z 6 j b 6 9 ",
"N f 9 5 4 9 2 7 7 7 b { I b b 9 9 b b b n K ( %.{ F b b B { T z 7 2 z 4 7 7 7 F ",
"{ { I d q f 5 6 b T { 2.5.5.5.5.5.q.q.u.u.s.a.j.f.u.O.W { 5.2.{ z 3 z j I { O.{ "
};
