/* XPM */
static char *_17ff6b4952e4b90cf66a7bd1a84b1adZTDA34C3yfplvoH1[] = {
/* columns rows colors chars-per-pixel */
"40 40 83 1 ",
"  c #132E2E",
". c #132F32",
"X c #163434",
"o c #193535",
"O c #1A3B36",
"+ c #173639",
"@ c #1A3638",
"# c #17383A",
"$ c #1C3C3B",
"% c #213F3E",
"& c #1E413D",
"* c #21443E",
"= c #22483F",
"- c #1F3E41",
"; c #203F42",
": c #1F4141",
"> c #234443",
", c #294746",
"< c #254A44",
"1 c #294B46",
"2 c #254748",
"3 c #264B49",
"4 c #2A4D4A",
"5 c #304F4E",
"6 c #2A5046",
"7 c #2D524D",
"8 c #2F584E",
"9 c #30544E",
"0 c #30554F",
"q c #31594E",
"w c #2A5250",
"e c #2B5251",
"r c #2D5251",
"t c #2F5550",
"y c #2E5551",
"u c #2F5553",
"i c #2F5753",
"p c #325351",
"a c #305453",
"s c #345451",
"d c #345553",
"f c #345756",
"g c #355756",
"h c #325852",
"j c #335A53",
"k c #325954",
"l c #335954",
"z c #335957",
"x c #345B55",
"c c #355B55",
"v c #355856",
"b c #345C57",
"n c #365D56",
"m c #385957",
"M c #395B56",
"N c #375A58",
"B c #375D58",
"V c #385B59",
"C c #3A5B59",
"Z c #3B5C5A",
"A c #3A5D5B",
"S c #3C5C5A",
"D c #3C5D5B",
"F c #3F5F5C",
"G c #396154",
"H c #37605A",
"J c #396059",
"K c #3A625A",
"L c #3B635B",
"P c #3A635C",
"I c #3B635C",
"U c #3F625F",
"Y c #3E675F",
"T c #3F6860",
"R c #3F6961",
"E c #41625F",
"W c #43625E",
"Q c #416360",
"! c #436460",
"~ c #446763",
"^ c #446C64",
"/ c #496C67",
"( c #4B6E69",
/* pixels */
"7fvDE~Uvk:2jbHBHHni:$245a5542+2fGJIJJJf%",
"fADDAVABN37NIRTYPHI4>,5daf5,2%7ELLJvh74>",
"NDVfVfffAw:7wi7w43i<,2,544,>>$fA7477442*",
"TQfAEfffB3::33324<i2,44,2,,>;$nn,1797771",
"UED!Vdf7f3:2:3w3w77$442,,22--;vA7147d993",
"MDEEVfrrN33432<3r7wO33-,42>---nPa7279jj9",
"vVADawfDA3ijk74kj7i22,>,4>-+3$hvh9447jj9",
"afNhwfDDz37ir74743w<2224,;-->$7a7aa77694",
"4iiiDDA742333677r7r&;234,,-2w;5f7nJEGx7*",
"-:224432:##-$*:233>+o*33,2->;@$246q974<O",
"2iNHPPPJ7$+2khhxa4*o-3aGfa77>@*2=qqq74* ",
"aIIY^^^~h$:69GPJj72$4akJnh742O6q68883*& ",
"LGnnhhjq4$><27hqj7,$77ancai4:+<8=6==*&&X",
"Yn7hivha4$&&7qxJjq4$777acf76&+<6=*====&X",
"YD77a979<O$,aqhqnv4O7ah77hh2>O66=*====& ",
"JLnh9774<$,479MhjG2o6i7ca74<2O=<===6==& ",
"vMJYq7444O4v7qi9nh>+36i72>37i&&:&==6664O",
"77hGn7444O474447q4&X233>&>7i4O&&=*6<66q*",
"161,74444o*4772in6$X$>>-<3w3&X&&777>6<6*",
"%O%$$$&OOo$>,&$&>,O ++->22::XXX&***O&O=O",
"&6qqqqq76&$<7hnjj73O3BDTATTAA3$27iii763$",
"*<166qGGG<:6hHT^~S73z^~//((^~7<iii7ivha2",
"***>=6==q7:337hnHn73iVfafNNNzw3i34w73ia4",
"=6==6==>q7&2777hhHn7rAffrfzyw-27744n77n7",
"=666====qq<227a7hhBi3MVjafiww224:iwjnin7",
"6qq6===6Gq><4q7hiiB73vVAfrarfa:4:247naa3",
"qq6===6676&37i77iaNwrNvUVjNDTN:vj4<37ji2",
"=6==666=63:377hachj2fVavVVVVAj:7jr3<377>",
"*=7nGMq=6=27337777624AnDBvjrj4-:,5da5,*%",
"O*<666==*+O422213<$+$,7r4,212$+#%%,>%%% ",
"%*77qhM67>@&437ha7<OO3qqGGqv4X+25ssss55@",
"%*17hnnnJ4#&<47hh47<O6vLLLn87>@4mSSMsss%",
"%**>3678n<+&><6qq411&=68886<4*O1,444555,",
"$>3>>>34j6+$<47i6144O=88766<>%o*,14,5*5,",
"$>673>2<i7+$*6474443O<8686<<1%%%*,,,%555",
"$<3h7333i3O2*,44q44<O1876<<<4*@%%1*,;5s5",
">247h6a473&36,&*443>O&4766<886@*%,*5Ms5%",
">44i7ah72:$<74&O&><&XO&<6<:<6<o>,%;95,%%",
"67474DJn3$XO<33>::&O &17<&&88*O>%%%%%%%%",
"&>$$$<2<$X.X+:>:$OX  X&>&X&&=$XX%o%ooo%o"
};
