/* XPM */
static char *df937d948b634387ad5e9a3dc90941fbSRPV4IK0JFpgzIQD[] = {
/* columns rows colors chars-per-pixel */
"40 40 77 1 ",
"  c #2E6267",
". c #2F6569",
"X c #2F686A",
"o c #306669",
"O c #336C6D",
"+ c #36716F",
"@ c #38756F",
"# c #377A6E",
"$ c #3A7B6F",
"% c #366F70",
"& c #377271",
"* c #397572",
"= c #3B7B73",
"- c #387D70",
"; c #3E7C73",
": c #3D7E73",
"> c #3A7874",
", c #3B7874",
"< c #3B7A74",
"1 c #3B7A75",
"2 c #3C7A74",
"3 c #3C7B76",
"4 c #3C7D74",
"5 c #3E7E77",
"6 c #3E7F77",
"7 c #3F8070",
"8 c #3E8172",
"9 c #3E8272",
"0 c #3F8075",
"q c #3F8076",
"w c #43856E",
"e c #428B6F",
"r c #478E6F",
"t c #4C936F",
"y c #4D946F",
"u c #4F966E",
"i c #50906D",
"p c #53956F",
"a c #52966E",
"s c #51996F",
"d c #559A6E",
"f c #579E6D",
"g c #589F6E",
"h c #599F6E",
"j c #418372",
"k c #408672",
"l c #418275",
"z c #408277",
"x c #418476",
"c c #458674",
"v c #438971",
"b c #468871",
"n c #458873",
"m c #468872",
"M c #478D71",
"N c #498D71",
"B c #4A8F70",
"V c #408378",
"C c #418579",
"Z c #458D79",
"A c #4B9170",
"S c #499271",
"D c #4D9170",
"F c #4E9370",
"G c #4E9870",
"H c #509371",
"J c #529770",
"K c #529970",
"L c #589B70",
"P c #5BA06D",
"I c #5DA16D",
"U c #5DA26C",
"Y c #60A46C",
"T c #62A56C",
"R c #61A66C",
"E c #65A96B",
"W c #69AC6B",
/* pixels */
"&&&*****&&***=pUs#&*5555***NN>&&***&&&O&",
"**jyx5**+OO**&$rwO&**::j5<*$*&+*5<<<%OO&",
"55hYm<&OOOOO+++OoO&+++**ck<*%O%<4cIp**<3",
"V5mk5*OOO+OOOOOO.OOOO+@AYfk3%OO*$yIr<*0q",
"533**+++@-*&OoOOO+*OOO#pfs9*OoOO&--*+*>z",
"<**%O**#ipj&OOOOO+&O&OO-$-<%OOOOOOOOOO*3",
"<**%&*@-yhb+@OO*&&+O++OO&&OO O%&OO. o&&*",
"c>**OOO&*jj+@@**&*-55*&OO.O..O@*OOOOO%O&",
"Lr*%OOO*+**O+%,*$:xx0<*+OX.O%*cdm@&OOOOO",
"N5>OoO+OOOOO%*,;00550k**&OOO*<qLy5&OO+%O",
"*&*OooOOOOoO++%=5qpH>**+&&%%O&*55*+o.OO*",
"OOO&OOOOOOOO*+OO-ATdk*OO&-OOOOO&&OOO  OO",
"OOOOO**=+OOO*OOO&k9$@+OO$hi+OOOOOOOOo  O",
"oOO+*cy:*@++OO oO&++OOOO$hh:*&&+&O&OoooO",
"%O&5zkj=*=**Oo oOOOO  OoO$j****4$--@mw+O",
"%O*z5:cbjz=OO OOOOOOX XoO+&*<-j0005yIEc+",
"%&-:$tIIcj:OoO*55*OOOOO+&*:>50zj--*eyy>&",
"*%O*-ehdjz=++#5NFj5*OOO**->:=j:@@**&#@&&",
"*&OO%&k:5$+O@>:IEy*OO%&*<-<*=@*++@O.oOOO",
"><&O.O&><&+O+@<Nyj+O%&<5555>+++OOO .oOOO",
"55<&OO&&%&OOOOO*$&OO**<<cKfm=&*OO.XOOO&*",
"C5<<*>**OOOOOOOOOOOO+*<jdEfe:<0=&&&&+@5x",
"x*55:*+OO O OooO.OOO*xc5ky9z<zcz4<+O@*0Z",
"s:+&+OOoOOO@OOOOOOOO*0z:&-5<<<:5<&OO+*mh",
"s#%OOXX.o+=$*-<*OOO*@rc>&%%%***>N=OOO*5h",
":O%OXOoo+=zcNxC0*OOO+cj&%OO&&O*eYs@O+*:5",
"OOoOO+O**=chEs9<&OOoOOOOO&**+OO$pA$OO&3*",
"&O+&+*-:3-cdhN$&OOoooOO+****@+O+$:=+O&&*",
"&&@<*9V5***k99*OOO%%&&&**>-&@OOOOO+++*&&",
"OO#Ap95:-++OO*OOOOzbyN5=55<:#+*&OO@+j*%O",
"XO@sWPk>@+OooOO&$5yhTscjxz5ty5:&OO+&>*+O",
"OO&vfhw@OOOOOO&$5zxbr9:kx5:FFk*%OOOO&&%O",
"O&&&j#OOOOOO&*&**;0z5$=zz3*7v#-OOOOO+&&+",
"-<*O+OooOO&%%O&*zj***&*3=&+O@@OO++++&+*3",
"cx-+O&OoO%&%OOO+*=**OO&,*OOOOOOO*>-j:-5C",
"q*wp@OOO%**&++OOO*+*+OOO++OOO&*-4<Ndr:50",
">&+$OoO-cyz5-&&%O&++OX.XO++@*<5x04mM#**<",
"OOOOoO&9usz5<*>*%OOOOOXO+$:3500Cx5**&&%%",
"Oo oOO&499*****cy&OOO+O+*<cHc:-50<*&&OOo",
". ooO&&&**&&=3eYYk%O-->*&<FYp5*<#*&*&OOO"
};
