/* XPM */
static char *result[] = {
/* columns rows colors chars-per-pixel */
"40 40 33 1 ",
"  c #2E6267",
". c #2F6569",
"X c #2F686A",
"o c #306669",
"O c #336C6D",
"+ c #36716F",
"@ c #38756F",
"# c #377A6E",
"$ c #3A7B6F",
"% c #366F70",
"& c #377271",
"* c #397572",
"= c #3C7B73",
"- c #3E8174",
"; c #43856E",
": c #448C6F",
"> c #4D946F",
", c #52956E",
"< c #549B6E",
"1 c #599F6E",
"2 c #418574",
"3 c #458A71",
"4 c #498E71",
"5 c #418478",
"6 c #458D79",
"7 c #4B9270",
"8 c #4E9870",
"9 c #519671",
"0 c #529970",
"q c #589B70",
"w c #5CA16D",
"e c #61A66C",
"r c #65A96B",
/* pixels */
"&&&**=**&&***=>e<#+@==-==**77=%&****&%O%",
"**272=*&+O%+*+#4-O+====-==*=*%%*====%%%&",
"=51e3=&%OOOO+++OoO+++@**62=*%O%==3w,**==",
"5=32=&OOO++OOOOO.OOOOO@>eq2*%X%*=>w:**-5",
"====*&O++*=@+oooo@*OOO=><0-*%OX%&==#&&=-",
"=**%%&*=,,=@OO++O&&O+OO#-##&OoOOO%+XO%*=",
"**&%&**=,1;+++%*&&+&++OO+&&O..%&OoX o&&*",
"5=**OOO+*;-++@&&&*====&OOXo.oO@*%OoOO%O&",
"w4*%OO%@@&&&%%*===522=*+OX.O&*303&&OOOOO",
"6=*OoO%OOOoO%@==52====**%OOO**2q>=*Oo+%O",
"*%*&oooOOOoO%+%==2<7==*&&&O+%%*===*ooo&&",
"OOO&O%O%+%o%@+O@=7e<-*&O&=OOOO%*&OOo..OO",
"OOOO%+*=+OO%%OoO&=3$@+OO$1>@OOOOoOOO. .o",
"oO%&*29=@@%@%oooO&++OooO$11=&&%&++++OooO",
"%%&=2-2**==%OooooO+Oo.ooO;;&***===*=;;+O",
"OO*2--;4--=Oooo%&OOoo.XoOO%*==-22-=7wr;+",
"%&#-=7we3==OoO*==&%O%OOO&**==-5-==#:>>=&",
"&&O*=:<<22=++*-792=*o%%&*====-==@*+*++&&",
"*&OOO*2===+O===wr>*O%%*=====@=@++@OoXOO+",
"=*++oo****+OO@=4>-&O%**==-==@++OOO. XoO+",
"-5*&OO+&&&OOOOO*=+OO%&*=2903=*&OO.XOO%%=",
"5-====&&%OOOOOOOOOOO%==2<rw3====&&&&&*=5",
"-====*@OOoooOooooOO+*22=2>55=553==&O+*-6",
"8=&*@OOooOO++OOOoOO@@-5=*#=======*Oo+*3w",
"0=%%XXO X+=====*OOO@@42=&%O%***$4$OOO*5q",
"=%%XXOX.+=-2:-5-@OO%%22&%O%&&%&3w<@O+*==",
"OXOOO++&@=2wr02=*OooOOOOO&&*++O$8>$OO*=*",
"&%%%+=====3<1:=+%oOoOoO+**=&++O+@-=+O&&&",
"&&@#@=--=@*=3=*OoO%%&%&====*@+OOOO+++&&&",
"OO#7,-=-=@+OO*OOO@-;77======@@&+OO+@=*%O",
"OO#0rw3=*+Oo.OO&==4qe0222--77-=&OO+&==&O",
".O+-ww-*OOoOOO&=5-2742=25==87-*%OOOO&+%O",
"%@&*-#oOOOXO&***===-===25=*-:$@+oOOO&&&+",
"==*O+Oooo+&%%O&*=2*=*&==*&%%*++O+++@&**=",
"22#+O+OOO&&%OOO+*=**%O+**OOoOOO%*=#====-",
"5=;,@OOO&***++OO+*+++%oO+++OO%&===7<4=--",
"*%&$ooO*37-==&&&O&++OX.XO+&**=-5-=33=@*=",
"%OOooO+-8922=**&+O%OOOXO+@*==2-55-=*&&%%",
"Oo oOO&=--***==2>@OoO+%%*=2<5-=5-=&&&OXO",
"   O+&*&**&&*=:ww2O+===&*=7e0=**=*&&%O%O"
};
