/* XPM */
static char *cff7c8aaa10d46fff4d0b3cbebf4db09NTzp0mpQTTuLBnEm[] = {
/* columns rows colors chars-per-pixel */
"40 40 148 2 ",
"   c None",
".  c #0F0F10",
"X  c #151616",
"o  c #171818",
"O  c #1B1C1C",
"+  c #231B1F",
"@  c #2A1D23",
"#  c #331E29",
"$  c #3C1B2B",
"%  c #252525",
"&  c #2B2126",
"*  c #2C262A",
"=  c #272828",
"-  c #2C2C2C",
";  c #34252D",
":  c #32292E",
">  c #3F2230",
",  c #3B2E34",
"<  c #2F3030",
"1  c #323333",
"2  c #3B3237",
"3  c #373838",
"4  c #3C3C3D",
"5  c #421B2E",
"6  c #4C1B33",
"7  c #581736",
"8  c #541A36",
"9  c #581937",
"0  c #541F38",
"q  c #5C1B3A",
"w  c #61173B",
"e  c #6B153E",
"r  c #631B3D",
"t  c #4E2036",
"y  c #4E273A",
"u  c #462F3B",
"i  c #56213A",
"p  c #59253E",
"a  c #3D3D40",
"s  c #6D1C42",
"d  c #731441",
"f  c #7D1445",
"g  c #761C46",
"h  c #7B1846",
"j  c #7F1C4A",
"k  c #542F41",
"l  c #5F2A44",
"z  c #4F3340",
"x  c #4E3B45",
"c  c #553746",
"v  c #5B3145",
"b  c #642342",
"n  c #6A2345",
"m  c #682847",
"M  c #6C2949",
"N  c #75234A",
"B  c #7A244C",
"V  c #742A4E",
"C  c #6A304C",
"Z  c #7C3255",
"A  c #713E56",
"S  c #3F4141",
"D  c #444445",
"F  c #454648",
"G  c #474848",
"H  c #4B4C4D",
"J  c #55484F",
"K  c #564C52",
"L  c #4F5051",
"P  c #535454",
"I  c #57585C",
"U  c #5A5A5A",
"Y  c #7F4B64",
"T  c #626363",
"R  c #656669",
"E  c #676968",
"W  c #6B6B6B",
"Q  c #6C6C72",
"!  c #6F7070",
"~  c #757576",
"^  c #777778",
"/  c #7C7C7C",
"(  c #8F0F4B",
")  c #900F4B",
"_  c #821247",
"`  c #871148",
"'  c #8C124B",
"]  c #831B4C",
"[  c #8B1F52",
"{  c #81204E",
"}  c #842B55",
"|  c #81385B",
" . c #804360",
".. c #7F8080",
"X. c #838383",
"o. c #878888",
"O. c #8B8B8B",
"+. c #949394",
"@. c #979898",
"#. c #9B9C9C",
"$. c #9FA0A0",
"%. c #A4A4A4",
"&. c #A7A7A8",
"*. c #ADACAD",
"=. c #B0AFB0",
"-. c #AFB0B0",
";. c #B3B3B3",
":. c #BABBBB",
">. c #BFC0C0",
",. c #C6C6C6",
"<. c #CCCCCC",
"1. c #D3D3D3",
"2. c #D7D8D8",
"3. c #DBDBDB",
"4. c #D8D8D8",
"5. c #DDDDDD",
"6. c gray87",
"7. c #DFDFDF",
"8. c #DFE0E0",
"9. c #E1E1E1",
"0. c #E2E2E2",
"q. c gray89",
"w. c #E4E4E4",
"e. c gray90",
"r. c #E6E6E6",
"t. c #E7E7E7",
"y. c #E9E9E9",
"u. c gray91",
"i. c gray92",
"p. c #EBECEC",
"a. c gray93",
"s. c #EFEFEF",
"d. c #EEEFEF",
"f. c #F1F1F1",
"g. c #F3F3F3",
"h. c gray95",
"j. c gray96",
"k. c #F4F4F4",
"l. c #F6F6F6",
"z. c #F8F8F8",
"x. c #F9F9F9",
"c. c #F9FAFA",
"v. c gray98",
"b. c #FBFBFB",
"n. c gray99",
"m. c #FDFDFD",
"M. c #FEFEFE",
"N. c white",
/* pixels */
"                                                                                ",
"                    #.%.O.                            #.%.                      ",
"              #.;.1.q.1...                            $.8.w.1.-.+.              ",
"          O.:.r.m.m.m.>.T                             O.4.m.m.v.9.;.^           ",
"        O.<.b.m.m.f.:./ S                             ^ #.<.v.m.m.v.,.~         ",
"      ^ :.m.m.m.q.O.4                                     ! *.l.m.m.l.*.        ",
"      / a.m.m.l.O.-                                         W ;.m.m.m.2.W       ",
"      o.v.m.m.2.J                                             X.l.m.m.i.^       ",
"      / v.m.m.1.D                                             ^ l.m.m.r.W       ",
"      U 4.m.m.a.T                                           G #.m.m.m.:.G       ",
"      4 ^ u.m.m.<.U                                       D o.a.m.m.1.T         ",
"        1 W <.m.m.r.#.W U U U U U U U U U U U U U U U T / :.l.m.v.;.P           ",
"            F &.m.m.m.l.r.r.r.9.9.r.9.r.r.9.r.r.9.r.r.i.v.m.m.f.o.<             ",
"              G 9.m.m.m.m.m.m.m.m.m.m.m.m.m.m.m.m.m.m.m.m.m.m.;.%               ",
"              F 5.m.m.m.m.m.m.m.m.m.m.m.m.m.m.m.m.m.m.m.m.m.m.*.%               ",
"              G 5.m.m.m.m.m.m.m.m.m.m.m.m.m.m.m.m.m.m.m.m.m.m.*.=               ",
"              F 7.m.m.l.9.5.a.m.m.m.m.m.m.m.m.m.m.i.5.r.v.m.m.*.%               ",
"              F 4.m.:.T F D I @.f.m.m.m.m.m.m.4.^ H D H ^ 4.m.%.%               ",
"              D <.,.S - - - - < O.m.m.m.m.m.t.T - - - - - T f.+.O               ",
"              3 *.+.- - < - < - P a.m.m.m.m.:.1 - < - < - 4 <./ o               ",
"                X.%.- - - < - = U k.m.m.m.m.<.3 - - < - - H <.P                 ",
"                H ,.^ < = * - D :.m.m.m.m.m.v.O.1 - - - G ;.*.1                 ",
"                = T ,.:.+.O.%.5.m.m.m.m.m.m.m.v.,.#.O.&.1.:.H                   ",
"                - H L ..:.0.l.m.m.m.m.m.m.m.m.m.m.f.2.*.~ 1                     ",
"                  1 a I G F T / +.%.*.;.=.%.+.X.W L 1 O                         ",
"                      a R Q P z l n g l b y > 5 $ .                             ",
"                      1 G R K V ` ' Z V ] n p i e 6                             ",
"                      3 G K B ( {  .Z ' ] ] v f ` _ $                           ",
"                        D N ' |  .} ) [ ) ] c g ( f w @                         ",
"                        k B A | [ ' } ' ' C N r e ( e $                         ",
"                        u M ] ) B Z { ) j x s ' q e _ $ O                       ",
"                      * q ' h m N ' ' ] l s 0 _ ( 7 e 8 O                       ",
"                      # f q p f ) ) r , : d e 7 ` ` 7 w &                       ",
"                      # 6 e ( ' e 7 - - - # f e 7 _ f t :                       ",
"                      & w f ' w % = - - - - & e d q f y D S                     ",
"                      * 6 e 8 + % - = O X % - : 0 i i p 1 S 4                   ",
"                        : &     % - -     = - - % 1 2 u                         ",
"                                  1 -     1 1 %                                 ",
"                                  1 -     3 <                                   ",
"                                                                                "
};
