/* XPM */
static char *c9d8d52b3b9041f8fca2f868dc1eebf6PyHl4WfWFUkhNMCf[] = {
/* columns rows colors chars-per-pixel */
"40 40 207 2 ",
"   c #FF000000",
".  c #0E0505",
"X  c #120909",
"o  c #1B0D0D",
"O  c #160707",
"+  c #1C1414",
"@  c #220606",
"#  c #240B0C",
"$  c #2C0C0D",
"%  c #330B0C",
"&  c #3C0C0D",
"*  c #280F10",
"=  c #340F11",
"-  c #211515",
";  c #2A1212",
":  c #231A1B",
">  c #281C1C",
",  c #321415",
"<  c #3F1113",
"1  c #281F20",
"2  c #2C2324",
"3  c #302728",
"4  c #332A2C",
"5  c #302527",
"6  c #372F30",
"7  c #3E3638",
"8  c #4B0709",
"9  c #4C0A0D",
"0  c #470708",
"q  c #550709",
"w  c #5A0609",
"e  c #54090C",
"r  c #5C090D",
"t  c #510507",
"y  c #4E0F11",
"u  c #410E10",
"i  c #550E11",
"p  c #5A0E12",
"a  c #431215",
"s  c #461416",
"d  c #5A1316",
"f  c #6C0506",
"g  c #63070A",
"h  c #6B070A",
"j  c #630A0D",
"k  c #6C0A0D",
"l  c #620507",
"z  c #750507",
"x  c #7B060A",
"c  c #74090D",
"v  c #7B090D",
"b  c #73070A",
"n  c #640D12",
"m  c #6A0E13",
"M  c #730C12",
"N  c #7E0B10",
"B  c #6E1016",
"V  c #701116",
"C  c #452829",
"Z  c #5F2629",
"A  c #433334",
"S  c #433C3E",
"D  c #4A3637",
"F  c #593637",
"G  c #4B4346",
"H  c #4E4749",
"J  c #554C4F",
"K  c #5C5558",
"L  c #6A6567",
"P  c #736F71",
"I  c #786F70",
"U  c #83060A",
"Y  c #8B0609",
"T  c #85090E",
"R  c #8B090E",
"E  c #8E0406",
"W  c #93070B",
"Q  c #9B060B",
"!  c #93090D",
"~  c #9C090E",
"^  c #840C12",
"/  c #8D0B12",
"(  c #940B12",
")  c #9C0B12",
"_  c #9A0E19",
"`  c #8D111A",
"'  c #941017",
"]  c #A4060B",
"[  c #AE060B",
"{  c #A5090E",
"}  c #AE090E",
"|  c #A00407",
" . c #BA0407",
".. c #B20509",
"X. c #BD070C",
"o. c #BC080E",
"O. c #B1060A",
"+. c #A40B13",
"@. c #AB0B13",
"#. c #AA0E19",
"$. c #A20F19",
"%. c #B40B13",
"&. c #BB0A12",
"*. c #B40E18",
"=. c #BB0E19",
"-. c #A3101B",
";. c #AD111D",
":. c #B6111D",
">. c #B8101D",
",. c #981D2D",
"<. c #AB1A2A",
"1. c #B91827",
"2. c #B11D30",
"3. c #9A202C",
"4. c #AC273F",
"5. c #B4263D",
"6. c #C4060C",
"7. c #CC060C",
"8. c #C4080E",
"9. c #CA080F",
"0. c #D4060C",
"q. c #DA070D",
"w. c #D4080F",
"e. c #DF080F",
"r. c #C40B14",
"t. c #CC0A13",
"y. c #C40E1A",
"u. c #CD0D1A",
"i. c #D40912",
"p. c #DC0A13",
"a. c #DE0D1A",
"s. c #D30D19",
"d. c #C7111E",
"f. c #DA101D",
"g. c #E0070F",
"h. c #E30A14",
"j. c #E90913",
"k. c #E40D19",
"l. c #E90E1B",
"z. c #E5101F",
"x. c #C31424",
"c. c #CF1423",
"v. c #CD1629",
"b. c #C31A2E",
"n. c #CE1B2F",
"m. c #DB1527",
"M. c #C41C31",
"N. c #D61C33",
"B. c #DE1B32",
"V. c #E41223",
"C. c #EB1223",
"Z. c #E4162B",
"A. c #E41A2E",
"S. c #E51D35",
"D. c #E31935",
"F. c #C82337",
"G. c #DC2239",
"H. c #D1233B",
"J. c #E4243D",
"K. c #E72139",
"L. c #B9324D",
"P. c #CA2B44",
"I. c #DB2945",
"U. c #D92C4A",
"Y. c #C2324E",
"T. c #D7324E",
"R. c #CE2C50",
"E. c #C03455",
"W. c #DD3659",
"Q. c #E32543",
"!. c #E62946",
"~. c #E52A4B",
"^. c #E92B47",
"/. c #E72D52",
"(. c #E82E50",
"). c #E5375A",
"_. c #E53A5D",
"`. c #EA3A5E",
"'. c #E73352",
"]. c #DC3D60",
"[. c #E43B61",
"{. c #EB3C63",
"}. c #E74369",
"|. c #E5496D",
" X c #E8446A",
".X c #E64972",
"XX c #E9537E",
"oX c #E6507B",
"OX c #E65282",
"+X c #EA5282",
"@X c #F06292",
"#X c #E76998",
"$X c #EA76A4",
"%X c #8F8B8C",
"&X c #B1AFB1",
"*X c #B8B6B8",
"=X c #ACA8AC",
"-X c #C2BFBF",
";X c #C8C4C6",
":X c #D7D5D7",
">X c #DCDADB",
",X c #ECECEC",
"<X c #E5E4E4",
"1X c #F0EFF0",
"2X c #FEFEFE",
"3X c #FEFEFE",
"4X c #F5F4F5",
/* pixels */
"                                      D.N.N.                                    ",
"                            Q.Z.v.1.*.r.t.i.y.#.d.K._.}.|.                      ",
"                          Q.u.=.=.i.p.k.j.j.j.9.} } s.z.K.[.OX                  ",
"                        b.*.r.k.k.p.p.i.i.w.w.p.q.o.{ >.W.#X                    ",
"                    B.1.r.a.u.+.M p a < a a y m ( r.w.o.3.                      ",
"                {.m.*.t.i.^ < o + : + + + : : : ; a M %.t.$.4.                  ",
"                Q.=.r.8.e + + : 2 3 3 3 4 : : 5 > + : ; ^ w.` L.                ",
"              `.x.$.u.p + 2 2 4 3 6 6 4 S 4 4 1 4 : + - ; ) &.3.                ",
"              Q._ r.( - : 2 2 2 2 : 2 3 2 4 2 2 4 : + + + y 8.{ 1./.            ",
"              M.@.i.e + + S L G L K K J H H H G G 1 4 + : ; } r._ D./.          ",
"            /.$.y.t.s - : 4 6 2 H &X>X>X:X;X=XK 2 + 2 : : + R w.' Y.            ",
"            T.( i.i.V : > o X X X P 4X2X2X2X:X4 . . X + o % { p.+.              ",
"          {.c.@.k.k.*.a : + : 2 H *X2X2X2X2X1X%XS 7 2 o - c t.s.#.              ",
"            W.<.i.h.p.( , : 7 &X1X2X2X2X2X2X2X2X,X;X7 o e =.r.#.5.              ",
"            {.G.d.i.i.t./ ; 2 I -X>X<X,X,X1X,X>X;XI - & @.&.#.R.+X              ",
"                _.N.+.] t.c + # a C C A D F F Z d ; o c ~ U d.).$X              ",
"                  P.` / ! N o # c k r j r h U R / = # h b g &.D.                ",
"                E.;.o.7.X.k O # v v ) ) ) +.( / ( < * r U W #.].                ",
"                3.s.h.z.g.N $ % k c e c _ e j ^ ) r = ^ i.p.#.]..X              ",
"            @XT.%.j.z.h.g.c $ & W T y r r 9 Q X.t.~ % h q.q.Q v.~.              ",
"            {.=.8.e.q.0.7.h O t O.x w v j h } 9.w.Q O w 7.7.] ] N.|.            ",
"            n.=.z.k.h.w.7.c $ z  .h b x x x 6.w.7.Q @ h 7.i.i.{ m.}.            ",
"        F.1...q.h.g.l.h.p.{ u R 9.k W &.+.T i.k.p.) % ) h.k.k.i.>.I.}.          ",
"    T.-.%.6.0.0.0.0.q.h.e.6.y x } r %.8.} v 8.p.8.v 0 6.e.e.h.q.7.=.x.H.W.      ",
"    _.-.( i.q.q.h.q.q.q.0. .t 0 f 0 .. .Q w E 6.[ q 0 6.7.0.7.7.7.i.7.&.L.      ",
"      G.( +.k.l.C.l.z.l.k.a./ p k g 7.9...l f 7.6.8 9 6.0.0.0.q.k.f.=.2.        ",
"        c.x 9.k.k.h.h.h.g.q.^ y e ^ p.X.6.U e t.p.^ y +.h.e.e.h.z.x.2.W.        ",
"        A.Q ] 0.0.0.0.0.0.X.i r 0 T q.&.&.+.m +.k.y.B m u.k.k.k.r.;.I.          ",
"        '.r.@.&.8.i.q.g.w.T / T h b 6.6.Y x h f ..9.@.x U 9.9. .R c.|.          ",
"         XC.p.i.u.u.&.*.@.R O.z E g 6.7.E Y x Y Y 0.i.9.Q 8.q.@.#.~.            ",
"          `.^.k.k.h.w.o./ _ %.U +.k 7.i.W Y W W x 7.9.&.) @.&.%.n.oX            ",
"            XX~.S.k.h.e.7.{ ) / / v [ 0.U T Y ! ! Q ) =.y.a.f.I.                ",
"                  _.!.V.e.0.8.Q v c c o./ / k ( =.p.k.z.V.Z.J.                  ",
"                      '.B.V.g.q.X.Y w ~ ^ M j i.j.k.k.D._.                      ",
"                          XX^.V.h.e.@.j j p x a.p.m.J.[.                        ",
"                            OX~.S.Z.a.^ k h Q a.V._.                            ",
"                                    Q.f._ / i.V.!.                              ",
"                                      '.F.F.'.                                  ",
"                                                                                ",
"                                                                                "
};
