/* XPM */
static char *_8c45e563fa24090b2a4ce14c624566dXepeQaMk61SRaVL0[] = {
/* columns rows colors chars-per-pixel */
"40 40 127 2 ",
"   c #3E1C24",
".  c #3E252E",
"X  c #3B2B34",
"o  c #362F3A",
"O  c #34353F",
"+  c #3D343C",
"@  c #440F1A",
"#  c #44121B",
"$  c #4B151D",
"%  c #4D181F",
"&  c #50171F",
"*  c #511B1F",
"=  c #4C1520",
"-  c #441922",
";  c #4D1A21",
":  c #421E29",
">  c #541C22",
",  c #591E24",
"<  c #43232B",
"1  c #49242B",
"2  c #562024",
"3  c #5C2225",
"4  c #5E2328",
"5  c #552B2F",
"6  c #422E35",
"7  c #492C31",
"8  c #443C3E",
"9  c #612527",
"0  c #622927",
"q  c #642628",
"w  c #662929",
"e  c #6C2C2C",
"r  c #712F2E",
"t  c #6E312C",
"y  c #73312E",
"u  c #76382F",
"i  c #78382F",
"p  c #722F30",
"a  c #753231",
"s  c #7A3633",
"d  c #7E3934",
"f  c #333642",
"g  c #3C3942",
"h  c #333E4A",
"j  c #33434E",
"k  c #3B4449",
"l  c #324753",
"z  c #344B56",
"x  c #3A4D53",
"c  c #334F5A",
"v  c #385157",
"b  c #35535C",
"n  c #3A575D",
"m  c #36585F",
"M  c #3B595D",
"N  c #365661",
"B  c #375A63",
"V  c #395E64",
"C  c #385F68",
"Z  c #3B6265",
"A  c #36646C",
"S  c #3A646B",
"D  c #3C6A6D",
"F  c #3F706E",
"G  c #3D6D71",
"H  c #3D7374",
"J  c #3D7E7C",
"K  c #43474B",
"L  c #424B4A",
"P  c #455151",
"I  c #416260",
"U  c #446C65",
"Y  c #416F69",
"T  c #42736D",
"R  c #47796E",
"E  c #417673",
"W  c #437B74",
"Q  c #497F71",
"!  c #417C78",
"~  c #823B36",
"^  c #853D39",
"/  c #893F3A",
"(  c #844035",
")  c #884137",
"_  c #8B423B",
"`  c #91463E",
"'  c #944A3E",
"]  c #974C40",
"[  c #3D817E",
"{  c #4B806F",
"}  c #478275",
"|  c #468276",
" . c #4A8372",
".. c #4D8773",
"X. c #4E8672",
"o. c #488577",
"O. c #4D8874",
"+. c #4E8B74",
"@. c #468379",
"#. c #478778",
"$. c #488678",
"%. c #4B8B79",
"&. c #4A8A7A",
"*. c #4F8A78",
"=. c #518C74",
"-. c #4E917B",
";. c #4D927C",
":. c #4F957C",
">. c #529175",
",. c #579575",
"<. c #559877",
"1. c #5B9C76",
"2. c #519179",
"3. c #509279",
"4. c #52977B",
"5. c #51997E",
"6. c #559B7E",
"7. c #5D9F7B",
"8. c #57A17F",
"9. c #58A27F",
"0. c #65A476",
"q. c #69A977",
"w. c #3F8380",
"e. c #408883",
"r. c #489787",
"t. c #4F9F89",
"y. c #50A389",
/* pixels */
"H C C E G S S G G E G S G C S A E S S E G A W W S E G S ! G S S E S B Z H A S G ",
"W S D H G S G S ! S S ! S C S S H e.J S G G <.0.Q D ! G ! G D E W H S S G G W %.",
"$.F D G S S G S W C D G N C S J r.y.t.e.H Z Y Q D D E S D G C G G G E S A S @.2.",
"S D +.,.X.D S H E G B C c N A e.r.e.e.w.H V Z m Z D C C N C V D S D H H G C C D ",
"B T >.0.0.>.Y D D S c l X . k A H J J J A A H S S B M T Y B N V F <.-.G G H S b ",
"S V T  .*. .D Z b m c . $ $ - O N G H A S S D C V D 2.9.r.X.E V S +.E S A C F H ",
"E V N b b n B B m T  .U 8 5 7 x N z N C N b c B W 4.y.9.t.;. .T B m b C Z B Z Z ",
"Y V N b z c N n S *.7.@.V U R =.X.Y B m o h h N R o.5.*.X.2.W G m l B } :.-.W A ",
"N b z c Z R #.D c Z Z Z R ,.8.0.8.<.X.8 @     g D  .X.%.W E D M f f D 4.6.9.5.W ",
"l h j b J 5.9.;.m j l D >.0.q.1.1.>...8 # % % - + I Y T T Z z + # . v T %.%.D M ",
"< - < k } } ;.#.M - . n W ..>.O...{ U 7 * 3 2 % $ - . M +.X.8 $ 2 2 6 c D M < . ",
"> ; ; ; P } W I 6 % % < L F  . .U k < 2 3 3 3 2 % % 1 T 6.%.K * 4 3 > : . $ * 3 ",
"4 , 3 2 1 8 + - % % > > ; + O +   $ * 3 4 3 3 2 2 2 % 6 L K ; 3 q 9 3 , @ $ 3 0 ",
"0 0 0 3 $ @ $ ; 3 3 2 ; > % # # % * 3 0 w 0 3 3 3 3 2 # ; 3 w 3 , 4 9 0 ; @ ; 3 ",
"> 4 3 % $ % 3 0 0 3 > 2 3 3 ; # , , 3 t w 0 3 0 e t 5 % 3 a t 4 , , , , $ @ # % ",
"= $ % # $ 0 t w 3 , 3 3 0 4 3 > 0 y t 0 w 3 3 w a u 3 2 t a w 2 9 , , > $ $ > 3 ",
"0 * # % 3 t y 3 3 9 w 9 3 3 w * 3 y e w 9 9 q r a w % , u t 9 9 9 q q , & 3 w e ",
"t 4 % 3 u e 0 3 2 3 3 , * 3 3 % % 2 9 0 q q r e w * # % w y t e r s w > 9 y 4 3 ",
"5 0 2 t u w 3 > 3 , , , 9 9 & 2 9 > % * * 9 9 > * % @ @ * 3 w a s e > 9 a e 0 3 ",
"0 0 2 0 t 3 > > 3 3 q q 9 & 3 y y w q * $ $ @ @ * w 3 * * $ % > , = , e e 0 q e ",
"w 0 * 3 , , q q w e r e * & r s y y ~ e > % @ & w y i s ~ a y t , > 9 r e e e e ",
"w y 9 * 9 9 q q 9 9 3 3 & 9 s y y ~ _ s 9 > $ & 9 r s ~ ~ d _ _ a q 9 s ~ a p e ",
"a s w > , , , , 9 e > % * y s ~ ~ ( ~ e , > > % , q e r y s d s s s w e ^ / s p ",
"^ a 2 > , 9 , e r r 9 > 9 ~ ^ / ~ s y q , q 9 % , 9 q w w e r e p ~ a , q s ] ^ ",
"e 3 w s r 9 w r r e r w e / / / s r r r 9 p a , * w e 9 9 q e e s ^ ~ , > 9 e s ",
", w y r q q e r 9 e s s a ' ` ~ e r s 9 9 s ~ 9 % 9 r p a e e e ~ ~ e e p 9 , 9 ",
"e s r q q r r e w r p ~ s ] / e e ~ ~ e e s ~ 9 & 9 q e ~ / / r r r r / / s a p ",
"d ) s e r a r w 9 e p s e ~ a e a / ~ e r ~ r & q r e q q a r q q ~ ` ` ~ r e r ",
") ^ ~ a ~ ~ e w 9 e y e & 9 e s / ` a e a r 9 9 r s s e e 9 , , s ~ / / ~ e q q ",
") / ~ ~ _ ~ r r e r w & & q r / ' ` e w e 9 , e a / ~ r e r , , s s ~ i ~ ~ e q ",
"^ ) / ` / ~ r e e 9 * > , 3 y ` ` r 9 w , , e r ~ ` ~ e q s , ; 9 y ~ ^ ~ s y r ",
"~ ~ e s r e 9 , & $ q y y q q y r 9 , 3 ; 9 r a / ' s e e s 3 = , 9 y s s ~ s r ",
"r w * r p e 4 = & > r ~ ^ ~ p p e , & & 4 e p / ` / ~ q w s 0 4 q 4 q e w q e s ",
"e * e ^ / q 4 , 4 e r p ^ / ` ^ ~ e 4 , q p ^ / / / ~ e a s q w e p s ^ ~ r 9 9 ",
"~ r e e e 9 q e ^ ~ q e ~ ^ ^ ~ ~ p p , q p ~ ~ y ~ ~ e s p e p a s d d s y y s ",
"e a ^ e q & 9 a ~ e q q e p ~ p p ~ s 4 4 ~ p p r ~ ~ ~ s e p a a a a s e a ) d ",
"e e s r r 9 e r e e p q 4 p p p q e e , & e ~ ~ y ~ ^ y w w r e e e a a r d ) s ",
"e e r s ~ r e p e q e e q 4 q q 9 , , q q , 9 p ~ y w 9 s y 9 , , q p e a ^ ~ e ",
"e e e r / ~ w ~ p q 9 e p q , 9 4 p ~ ~ ~ p p q 3 , 9 y ~ r a e , 4 4 p ) ( t w ",
"r e e e a ^ e ~ ^ e q q ~ p , 9 ~ ^ ~ p e e ~ ^ r 9 e ~ y r e r e , q s ~ u w w "
};
