/* XPM */
static char *_c9fe706c5994944ad5c889efd051a8bcJgESLrD3d2QyemQ[] = {
/* columns rows colors chars-per-pixel */
"40 40 101 2 ",
"   c #33635D",
".  c #376963",
"X  c #396D65",
"o  c #3B7167",
"O  c #3D7369",
"+  c #3F786C",
"@  c #41766C",
"#  c #437A6E",
"$  c #487E6F",
"%  c #457D70",
"&  c #487E72",
"*  c #468172",
"=  c #4B8475",
"-  c #4E8877",
";  c #4E8678",
":  c #4E8B7A",
">  c #508777",
",  c #518A77",
"<  c #528C7A",
"1  c #4F907D",
"2  c #54917D",
"3  c #59947E",
"4  c #5C987F",
"5  c #559581",
"6  c #5A9581",
"7  c #579983",
"8  c #5B9C84",
"9  c #5B9F88",
"0  c #629D84",
"q  c #5EA087",
"w  c #5DA289",
"e  c #64A286",
"r  c #69A586",
"t  c #6CA987",
"y  c #62A68A",
"u  c #69A688",
"i  c #64A98B",
"p  c #67AA8A",
"a  c #61A88D",
"s  c #63A88D",
"d  c #62A98D",
"f  c #63AA8F",
"g  c #64A88C",
"h  c #64AB8E",
"j  c #64AC8F",
"k  c #66AC8E",
"l  c #67AD8E",
"z  c #68A888",
"x  c #6AAB8A",
"c  c #6CAB8A",
"v  c #68AC8E",
"b  c #68AE8F",
"n  c #6BAE8E",
"m  c #6AAF8F",
"M  c #6DAE8C",
"N  c #71AE8A",
"B  c #6BB08F",
"V  c #6DB18E",
"C  c #74B28D",
"Z  c #79B78F",
"A  c #79B98F",
"S  c #66AE92",
"D  c #6BAF90",
"F  c #67B092",
"G  c #69B292",
"H  c #6BB292",
"J  c #6CB190",
"K  c #6DB191",
"L  c #6EB390",
"P  c #6CB493",
"I  c #6DB593",
"U  c #6FB693",
"Y  c #6FB794",
"T  c #70B591",
"R  c #71B591",
"E  c #72B590",
"W  c #70B592",
"Q  c #71B592",
"!  c #73B792",
"~  c #70B794",
"^  c #75B893",
"/  c #76BA93",
"(  c #72B994",
")  c #73BA95",
"_  c #74BB95",
"`  c #75BC95",
"'  c #76BC95",
"]  c #7ABC93",
"[  c #7ABE95",
"{  c #78BE96",
"}  c #79BF96",
"|  c #7AC097",
" . c #7BC197",
".. c #7DC196",
"X. c #7DC297",
"o. c #7EC398",
"O. c #82C395",
"+. c #87C896",
"@. c #82C698",
"#. c #86CB9A",
"$. c #8CCD99",
/* pixels */
"- 7 w B U _ ' ' ' ( i q 8 q 4 2 1 1 : # * : 1 q d i V V M C e 8 q y k y 7 9 5 % ",
"1 9 w w j H ( ( ' | V y q q w q q 4 2 : : 2 7 w q x U V W [ e 8 w w d a y 6 7 = ",
"5 7 7 w w S H W ~ | S 7 4 2 7 q w 7 4 : : 5 7 2 q w b B V ' q 1 5 w a d w 9 7 : ",
"5 w w j d H I W I  .b 7 2 1 7 w w w 7 : 1 5 w q q j V B Y ` q 5 7 w y w y w 7 < ",
"9 w w y j I ( ~ ( | S 5 5 1 5 w d S q 1 1 q w w i V V H ( Y d 7 9 7 9 w y y 7 1 ",
"9 d w y V _ ( _ _ | S w 7 7 7 w j H d : 1 q w w B W W W C B y 8 7 2 7 q j B e 1 ",
"9 j a a H _ ( _ _ ( b w w w 7 w j B i : 1 w w w B U C W C U y 8 q 9 7 w w j y : ",
"w S d S W ~ ( _ ( ( b w w w w j j d x 1 4 w w w b b U W Y V w w w y q q q e e : ",
"9 H H S H I ( { { ' S 7 w w w w w w y : 5 b d y k M ! ! ! ! g 7 w w 9 9 7 9 w - ",
"7 H W H H I ( { { | S 7 7 w w w w w y : 5 b H S k D W / / / g 7 7 7 9 9 7 5 w : ",
"9 H H H H ( ' ' {  .d 7 5 w w j 9 7 y : 5 k D d k H ! ! ! ] g 6 5 7 9 w 7 2 e = ",
"7 P H S F ' | { { X.H 7 5 7 w b w 9 w = , v d y a W / ! ^ { k 5 2 2 7 y 7 7 9 = ",
"- y F F I ( | |  .o.V 7 2 2 7 y e w 2 # * w d y b ! { ] ] @.x 5 2 2 2 q 9 8 ; @ ",
"* 2 w P Y _ ' o.o.@.H 7 1 5 4 i e : : + % 1 w k D W ! ] ] O.g 7 < 2 5 e 0 ; & @ ",
"# : 2 F ( ( ' | X.@.H w 7 q e e 2 1 : o @ = , y W W ^ { { X.D 7 6 7 8 9 ; & ; @ ",
"# # : 7 S ( ' | X.@.W y e e q 2 , : * - % % ; 2 y W ^ ^ ] O.b e 0 0 8 ; & ; & & ",
", = * 2 4 d A X. .#.` V t 7 : - - - 2 6 4 , * - 2 4 U (  .O.W x 0 6 & & & & ; 0 ",
"0 2 * * 1 2 q  .X.#.^ V q = * = * 1 t X.4 4 = * = 2 q ( A X.V x 6 & & & @ ; u C ",
"e 4 2 = : 1 2 q W $.V 4 * + * * , t X.O.N 4 4 2 * = - 4 V X.V 4 & @ & @ ; u T / ",
"C N e 4 = * : 2 4 X.z * o + # : t A O.$.A Z 4 4 = + * * 1 A e + . @ @ ; 0 W Z $.",
"t C t 0 4 , , , 1 4 , o @ @ - t C A X.X.t C t 4 4 - O * - 4 * X @ X & 0 C Z Z O.",
"4 4 N 0 4 4 , * : 1 * O o = e C A X.Z Z 4 4 C 4 4 4 * O # - + o . & 0 N Z Z Z Z ",
"3 $ 4 N Z 4 3 * * = O X = r N O.X.Z x N 4 = 3 t C t 4 * o * o . & 6 u Z Z C N N ",
", # $ 3 4 A 4 3 * * o * e C Z +.C t t N 4 $ # 2 4 C C 4 * O . * 0 N C Z N u 0 N ",
", @ @ & 6 N Z N 3 O % r c C { C t t e t 2 # # = 4 C A N 4 @ * 4 u C Z N u 0 0 N ",
"% $ $ $ & 0 N Z r & , N C Z M e M N e t < $ $ = , 4 A  .t * , t N C u 0 u 0 0 u ",
"& & & & & > 4 Z c & < C C u e e t C r c 2 * % = - 3 4 C C = , C H r 0 0 0 0 0 0 ",
"> & & & & > 4 0 e = < C N g 0 e e t r t 2 - = - 2 2 4 t e = - t u 0 0 0 0 0 0 u ",
"> > & & > 3 0 0 6 ; , u x x 0 e e e e e < - = - < 2 e e 8 = - 3 u 0 0 0 0 0 0 0 ",
"> > & 6 3 & 6 0 6 = , e c t 8 e i e 9 9 - - - - : 2 e e 0 = - 3 u 0 6 0 0 0 0 r ",
"> = > > > > 6 6 6 = - 6 e e 8 0 e 8 e 6 , - - - 2 2 e e 0 = = 6 6 0 6 6 0 0 r c ",
"; , & 6 & & & 3 2 % $ - 2 3 8 0 4 8 e e - = < - , < 6 e 0 % & - 6 6 6 6 6 6 6 0 ",
"; ; ; ; 6 ; ; < ; & & & 6 6 6 0 9 e t e , - , - , < < 3 3 % % > < 6 6 6 6 6 6 0 ",
"; & ; 6 6 < 6 ; & & & ; & 6 6 0 e M r e - - - - < , , , ; % = < 6 6 0 6 0 0 6 6 ",
"; & ; 6 6 6 6 < & @ ; 6 3 < ; 6 e M e e , = = - , , 2 , = % > 6 6 6 6 6 u u 0 6 ",
"; ; ; < 6 ; ; & & @ ; 6 6 6 6 6 2 0 e e < - = = , > , * = @ & 2 6 6 6 5 6 0 0 6 ",
"; & & ; ; & & & = @ $ 4 9 6 e 4 , < 3 3 > = $ = = * * $ = @ # < 5 6 0 6 6 5 6 6 ",
"; & & & & @ & & $ o @ , < 3 4 < = = : , $ # @ # $ @ @ $ = o @ - 6 6 0 0 6 & & 6 ",
"; & & @ @ @ X @ @ X @ @ $ = = > = $ $ $ + @ % $ @ o @ = $ X @ $ & > 6 6 & & > 6 ",
"@ @ @ . . .   . .     X . o o o o o o o X X o X o o o o       @ @ @ @ & & & & & "
};
