/* XPM */
static char *result[] = {
/* columns rows colors chars-per-pixel */
"40 40 176 2 ",
"   c #333A3F",
".  c #3C3E3D",
"X  c #493D37",
"o  c #4B4237",
"O  c #4A443D",
"+  c #574B3D",
"@  c #7B4623",
"#  c #744728",
"$  c #704224",
"%  c #7C502D",
"&  c #654731",
"*  c #68523A",
"=  c #7A5B3B",
"-  c #0B364D",
";  c #193B4F",
":  c #0D3C53",
">  c #023D5C",
",  c #093E59",
"<  c #073A56",
"1  c #143B50",
"2  c #0D4056",
"3  c #04425E",
"4  c #0C435B",
"5  c #0D4A5F",
"6  c #124256",
"7  c #1A4153",
"8  c #114459",
"9  c #124B5D",
"0  c #1A4A5B",
"q  c #28424A",
"w  c #3A4141",
"e  c #3B4847",
"r  c #284D55",
"t  c #2E585E",
"y  c #385556",
"u  c #32635F",
"i  c #0B4760",
"p  c #0D4C63",
"a  c #134E61",
"s  c #0D5369",
"d  c #0F5563",
"f  c #155464",
"g  c #125C64",
"h  c #165768",
"j  c #155B6A",
"k  c #195D6B",
"l  c #1E5462",
"z  c #15626D",
"x  c #1A606D",
"c  c #166472",
"v  c #1A6572",
"b  c #146C74",
"n  c #196975",
"m  c #1A6F78",
"M  c #197276",
"N  c #167F77",
"B  c #1D7877",
"V  c #16747A",
"C  c #1A737A",
"Z  c #127C7E",
"A  c #1B7C7C",
"S  c #167176",
"D  c #336060",
"F  c #4A4D46",
"G  c #504E42",
"H  c #4E5047",
"J  c #43524D",
"K  c #4D5E54",
"L  c #735B43",
"P  c #5F614E",
"I  c #736347",
"U  c #757D5E",
"Y  c #803E17",
"T  c #8B471B",
"R  c #8D4A1D",
"E  c #924E1F",
"W  c #984F1D",
"Q  c #8A4D22",
"!  c #844E28",
"~  c #8E5026",
"^  c #86542D",
"/  c #955222",
"(  c #9A5523",
")  c #9D5926",
"_  c #965A2B",
"`  c #875A32",
"'  c #955F32",
"]  c #A35C26",
"[  c #A15D29",
"{  c #A05725",
"}  c #85603C",
"|  c #9B6938",
" . c #A6632B",
".. c #AA642C",
"X. c #AD692E",
"o. c #B06A2E",
"O. c #AC6A31",
"+. c #A26E3A",
"@. c #B36D32",
"#. c #AD7339",
"$. c #B57334",
"%. c #BB7636",
"&. c #BC7837",
"*. c #BD7B39",
"=. c #B57438",
"-. c #C17D3A",
";. c #9E7847",
":. c #9E7F4D",
">. c #887551",
",. c #A07845",
"<. c #AE7C43",
"1. c #14817F",
"2. c #1F8C79",
"3. c #258070",
"4. c #268778",
"5. c #238B78",
"6. c #3B8D75",
"7. c #2B967B",
"8. c #3B9575",
"9. c #668E6F",
"0. c #639770",
"q. c #41A079",
"w. c #C3823D",
"e. c #C8833D",
"r. c #9B8455",
"t. c #A88A52",
"y. c #B89053",
"u. c #8E8F61",
"i. c #9F9960",
"p. c #90A869",
"a. c #AAA462",
"s. c #BCAF63",
"d. c #C68541",
"f. c #C68B44",
"g. c #CB8B43",
"h. c #D08C45",
"j. c #CC9246",
"k. c #CD954A",
"l. c #D29347",
"z. c #D4964A",
"x. c #D59A4C",
"c. c #D89B4D",
"v. c #CF9A50",
"b. c #C49451",
"n. c #D99E51",
"m. c #DAA14E",
"M. c #D6A24F",
"N. c #CEA65A",
"B. c #DCA351",
"V. c #DEAA54",
"C. c #E0A752",
"Z. c #E2AC55",
"A. c #E3AE58",
"S. c #E5B45A",
"D. c #E9B65B",
"F. c #EABB5D",
"G. c #E3B055",
"H. c #EABD61",
"J. c #EEC362",
"K. c #F0C664",
"L. c #F1C867",
"P. c #F5CE6A",
"I. c #F7D26C",
"U. c #F9D672",
"Y. c #157C81",
"T. c #0F8886",
"R. c #178081",
"E. c #1B8281",
"W. c #148B85",
"Q. c #109087",
"!. c #189387",
"~. c #169688",
"^. c #2BA080",
"/. c #34A680",
"(. c #53BD80",
"). c None",
/* pixels */
").).).).).).).).).).).).).).).).).).).).).).).).).).).).).).).).).).).).).).).).",
").).).).).).).).).).).).).).).).).).).).).).).).).).).).).).).).).).).).).).).).",
").).).).).).).).).).).).).).).).).).).).).).).).).).).).).).).).).).).).).).).).",
").).).).).).).).).).).).).).).).).).).).).).).).).).).).).).).).).).).).).).).).",
").).).).).).).).).).).).).).).).).).).).).).).).).).).).).).).).).).).).).).).).",
").).).).).).).).).).).).).).).).).).).).).).).).).).).).).).).).).).).).).).).).",
").).).).).).).).).).).).).).).).).).).).).).).).).).).).).).).).).).).).).).).).",
").).).).).).).).).).).).).).).).F.K.I.J.m.l.).).).).).).).).).).).).).).).).).).",
").).).).).).).).).).).).).).D.F.K.I.I.L.D.C.m.e.).).).).).).).).).).).).).).).).",
").).).).).).).).).).).).e.G.L.I.U.I.H.H.D.C.V.x.*.$.) =.x.Z.Z.c.).).).).).).).).",
").).).).).).).).).).).j.C.F.K.K.K.D.C.Z.D.V.g.w.X.X.$. ...*.x.x.*.).).).).).).).",
").).).).).).).).).).).A.P.J.V.Z.D.V.x.x.M.e.$.o.%.x.G.M.k.$.O.=.@.).).).).).).).",
").).).).).).).).).).*.G.I.J.B.j.w.%.$.*.-.$...e.m.F.P.K.J.H.f.) ) ).).).).).).).",
").).).).).).).).n.j...f.V.Z.k.&.j.G.S.x.X.( %.c.Z.A.H.J.L.J.S.*.) ).).).).).).).",
").).).).).).).d.B.g.] ] w.w.X.d.S.F.F.m.*.( @.e.x.m.S.K.H.L.S.z.-.).).).).).).).",
").).).).).).).).@.=.=.$.X.) E &.f.+.I +.' ).)...-.g.c.A.A.S.D.n.-.).).).).).).).",
").).).).).).).).x.B.S.Z.z.=.).).^ 7 3 r 7 ).).).^ ` =.g.C.c.c.z.&.).).).).).).).",
").).).).).).B.H.J.K.J.S.S.g...).).s t U u.A.).).< 4 O O.g.z.-.-.@.E ).).).).).).",
").).).).).z.D.J.J.J.F.H.c.-...E ).).t.D.L.H.Z.k.P , 1 / o.-.-.@.] / O.).).).).).",
").).).).).c.J.L.L.H.V.g.&.X.( Q (  .w.j.V.S.H.Z.d.F > ).W ] o...~  .f.M.).).).).",
").).).).*.x.V.B.B.g.%.[ ] ! @ ( O.) ( ..*.g.g.=. .& ).).X @ R R / =.c.M.).).).).",
").).).).%.w.w.w.-...Q . w ).o / ` # R $ + _ % G ).).p ; = =.X.Q ! O.d.*.).).).).",
").).).).] @.o.@...~   4 p i l o q , w r 4 ).0 h ).n j F @.z.A.b.= / [ ) ).).).).",
").).).).( ( ] ..( w 0 r.;.J v k a p J ;.y.>.f c v Y.i ; ! @.d.d.).).T T ).).).).",
").).).).).T T T ).).t.x.O.* h M n v } *.B.x.K x Y.v a ,   X ~ { ).).).).).).).).",
").).).).).).).).).).%.' e 7 9 h V Z D * } #.J 9 h f f f 4 > ).).).).).).).).).).",
").).).).).).).).).).).).4 p z h j M V s 6 y 6 : , ).).).).).).).).).).).).).).).",
").).).).).).).).).).).).).).9 f h b S B b V v u :.).).).).).).).).).).).).).).).",
").).).).).).).).).).).).).).).- : 6 f M W.Y.B 0.s.a.).).).).).).).).).).).).).).",
").).).).).).).).).).).).).).).- : : : f b Y.A 7.(.6.).).).).).).).).).).).).).).",
").).).).).).).).).).).).).).- 2 9 5 : 6 f m c a > ).).).).).).).).).).).).).).).",
").).).).).).).).).).).h.N.0.2 z z g 8 6 a z z a , ).).).).).).).).).).).).).).).",
").).).).).).).).).).).i.p.8.g f b b z 9 8 a f f : ).).).).).).).).).).).).).).).",
").).).).).).).).).).).4.3.f 9 5 c m m c h 2 2 2 - ).).).).).).).).).).).).).).).",
").).).).).).).).).).).).).5 6 6 a z v Y.E.j - - : 7.(.).).).).).).).).).).).).).",
").).).).).).).).).).).).).).).).6 f n C ~.Z f - 2.5./.^.).).).).).).).).).).).).",
").).).).).).).).).).).).).).).).6 8 k n Y.T.Z b ).x 5.N ).).).).).).).).).).).).",
").).).).).).).).).).).).).).).).9 6 8 k m W.T.1.n h ).).).).).).).).).).).).).).",
").).).).).).).).).).).).).).).f f 9 6 f b R.~.W.S ).).).).).).).).).).).).).).).",
").).).).).).).).).).).).).).).k k f 6 8 j V !.W.S ).).).).).).).).).).).).).).)."
};
